<svg width="32" height="27" viewBox="0 0 32 27" fill="none" xmlns="http://www.w3.org/2000/svg">
<path d="M26.6667 4.5L10.8267 17.865M19.2933 16.29L26.6667 22.5M10.8267 9.135L16 13.5M12 6.75C12 8.61396 10.2091 10.125 8 10.125C5.79086 10.125 4 8.61396 4 6.75C4 4.88604 5.79086 3.375 8 3.375C10.2091 3.375 12 4.88604 12 6.75ZM12 20.25C12 22.114 10.2091 23.625 8 23.625C5.79086 23.625 4 22.114 4 20.25C4 18.386 5.79086 16.875 8 16.875C10.2091 16.875 12 18.386 12 20.25Z" stroke="#1E1E1E" stroke-width="4" stroke-linecap="round" stroke-linejoin="round"/>
</svg>
